<?xml version="1.0" encoding="utf-8"?>
<!-- Generator: Adobe Illustrator 27.1.1, SVG Export Plug-In . SVG Version: 6.00 Build 0)  -->
<svg version="1.1" id="Background" xmlns="http://www.w3.org/2000/svg" xmlns:xlink="http://www.w3.org/1999/xlink" x="0px" y="0px"
	 viewBox="0 0 3200 2000" style="enable-background:new 0 0 3200 2000;" xml:space="preserve">
<style type="text/css">
	.st0{fill:#8A93A9;}
</style>
<g>
	<g>
		<g>
			<path class="st0" d="M1413,2083.7c-134.6,0-241.8-18.5-333.7-57.3c-139.9-59.1-265.4-173.9-383.5-351.1
				c-61.7-92.6-115.9-192.1-168.3-288.4c-70.9-130.2-144.2-264.9-236.9-383.6C39.1,681.3-370.9,479.3-779.4,476.1l0-0.7
				c101.6,0.8,204.3,13.6,305.3,38.1c99.4,24.1,196.7,59.5,289.3,105.1C-92.2,664.3-4.8,719.9,74.9,784
				c81,65.1,153.7,138.7,216.3,218.8c92.7,118.7,166.1,253.4,237,383.7c52.4,96.3,106.6,195.8,168.3,288.4
				c118.1,177.1,243.4,291.8,383.2,350.8c106.2,44.8,232.8,62.6,398.6,55.9c250-10,461.5-67.4,628.4-170.3
				c204-125.9,351.4-324.7,493.9-517.1c72.7-98.1,147.9-199.6,229.6-290c91.7-101.4,182.1-178,276.5-234.1
				c125.2-74.4,271.1-117.8,422-125.6c150.9-7.8,300.5,20.4,432.7,81.4l-0.3,0.7c-270.6-125-597.8-108.1-854,44.1
				c-210.3,125-360.6,327.8-505.9,523.9c-71.3,96.2-144.9,195.6-224.8,284.7c-89.6,100-177.7,176-269.3,232.5
				c-167.1,103.1-378.6,160.4-628.8,170.5C1455.8,2083.2,1434.1,2083.7,1413,2083.7z"/>
		</g>
		<g>
			<path class="st0" d="M1425.7,2065.8c-124.2,0-230.9-17.4-324.8-52.7c-95.9-36.1-182.1-88.9-256.4-157
				c-58.3-53.4-112.4-115.7-160.8-185.3c-65.5-94.1-121.7-196.4-176-295.4c-67.4-122.8-137.1-249.8-225-361.7
				C200.5,909.1,103.4,817.7-4.3,741.8c25.7,18,50.7,36.9,75.1,56.5c79.4,64.1,150.9,136.4,212.5,214.8
				c87.9,112,157.7,239,225.1,361.8c54.3,99,110.5,201.3,176,295.3c48.4,69.5,102.5,131.9,160.7,185.2
				c74.2,68,160.4,120.8,256.2,156.9c110.5,41.6,239,58.3,392.8,51c246.1-11.7,454.7-68.7,619.8-169.5
				c93-56.8,179.2-130.2,271.3-231.2c77.1-84.5,148.7-178.2,217.9-268.7c73-95.4,148.4-194.1,230.1-281.9
				c91.6-98.4,181.8-172.5,275.7-226.5c123.9-71.3,267.9-112.4,416.4-118.8c148.7-6.4,296.1,22.2,426.3,82.7l-0.3,0.7
				c-266-123.6-588.6-109.8-842,36.1c-209.1,120.3-359.8,317.5-505.6,508.2c-69.3,90.6-140.9,184.2-218,268.8
				c-92.1,101-178.4,174.6-271.5,231.4c-165.2,100.9-373.9,157.9-620.1,169.6C1470.7,2065.2,1447.9,2065.8,1425.7,2065.8z
				 M-380.6,554.3c-123.4-39.6-252.4-61.9-382.8-64.6l0-0.8c99,2.1,199,15.8,297.5,40.8C-437.2,537-408.8,545.2-380.6,554.3z"/>
		</g>
		<g>
			<path class="st0" d="M1439.2,2047.9c-114.9,0-221.2-16.1-316.7-48c-112.7-37.7-200.1-84-275-146
				c-65.3-53.8-126.1-118.7-176-187.7c-68.3-94.4-125.9-198.3-181.6-298.8c-64.6-116.6-131.3-237.1-215.3-343.4
				c-95.4-120.8-211-224-339.7-306c45.8,29.1,89.8,60.7,131.7,94.7c77.8,63.1,148,134,208.6,210.8c84,106.4,150.7,226.9,215.3,343.5
				c55.7,100.5,113.2,204.4,181.5,298.8c49.9,68.9,110.7,133.7,175.9,187.5c74.9,61.9,162.2,108.2,274.8,145.8
				c114.7,38.3,244.9,53.8,387,46c242.3-13.3,447.9-70,611.1-168.6c91.8-55.4,177.3-127,269.2-225.3
				c75.9-81.2,146.7-170.8,215.1-257.5c73.3-92.8,149-188.7,230.8-273.8c91.7-95.4,181.6-167,275-219
				c122.6-68.3,264.6-107,410.8-112c146.4-5,291.6,24,419.8,83.9l-0.3,0.7c-261.4-122.2-579.4-111.4-829.9,28.1
				c-207.9,115.7-359.2,307.3-505.5,492.6c-68.5,86.7-139.2,176.3-215.2,257.5c-91.9,98.3-177.5,169.9-269.3,225.4
				c-163.4,98.7-369.1,155.4-611.5,168.8C1485.9,2047.2,1462.4,2047.9,1439.2,2047.9z M-315.8,591.8
				c-137.8-52.8-283.9-83.4-431.4-88.6l0-0.7c96.3,3.4,193.8,18,289.6,43.4C-409.7,558.6-362.4,573.9-315.8,591.8z"/>
		</g>
		<g>
			<path class="st0" d="M1451.2,2030.1c-106.3,0-209.3-14.5-307.2-43.4c-61.3-18.1-109.8-35.2-152.6-54
				c-53.3-23.3-99.4-49.8-140.9-80.9c-72.6-54.2-138.7-119.9-191.2-190c-70.6-94.1-129.1-198.7-185.6-299.8
				c-62.2-111.1-126.4-226-207-327.5c-242.1-305-615.2-498.6-997.9-517.8l0-0.7c186.3,9.3,376.7,61.8,550.6,151.8
				c86.4,44.7,168.2,98.3,243.1,159.3c76.2,62.1,145.1,131.7,204.8,206.9c80.6,101.5,144.9,216.5,207,327.6
				c56.6,101.1,115.1,205.7,185.6,299.8c52.5,70,118.5,135.6,191,189.8c93.2,69.9,196.1,106.1,293.3,134.8
				c120.4,35.5,248.7,49.3,381.2,41c238.4-14.9,441.1-71.4,602.5-167.8c90.6-54.1,175.4-123.8,267-219.3
				c74.7-77.8,144.5-163.4,212.1-246.1c73.6-90.1,149.7-183.3,231.5-265.8c91.7-92.4,181.5-161.6,274.3-211.5
				c247.9-133.3,561.5-141,818.5-20.1l-0.3,0.7C3674.4,776.3,3361,784,3113.3,917.1c-206.8,111.1-358.7,297.2-505.7,477.1
				c-67.6,82.8-137.5,168.3-212.2,246.2c-91.7,95.6-176.6,165.3-267.2,219.5c-161.5,96.5-364.3,153-602.8,167.9
				C1500.6,2029.3,1475.8,2030.1,1451.2,2030.1z"/>
		</g>
		<g>
			<path class="st0" d="M1463.8,2012.3c-98.3,0-198.3-13-298.2-38.8c-115.3-29.8-218.4-59.7-312.2-123.8
				c-79.5-54.2-150.9-120.7-206.4-192.3c-72.3-93.2-131.4-197.9-188.6-299.1C398.4,1252,336.2,1142,258.7,1044.9
				C21,747.1-343,554.8-715.1,530.3l0-0.7c181.1,11.9,366.4,65.4,535.9,154.7C-94.9,728.6-15,781.5,58.3,841.5
				c74.6,61.1,142.2,129.3,201,202.9c77.6,97.2,139.7,207.1,199.8,313.5c57.2,101.2,116.3,205.8,188.6,299
				c55.5,71.6,126.8,138,206.2,192.1c93.7,64.1,196.7,93.9,311.9,123.7c126.1,32.6,252.4,44.7,375.4,36.1
				c234.5-16.5,434.3-72.7,593.9-166.9c89.3-52.8,173.5-120.6,264.9-213.4c73.3-74.4,142.2-155.9,208.8-234.7
				c74-87.5,150.5-178,232.4-257.9c91.8-89.5,181.4-156.2,273.9-204c245-126.9,554.1-131.5,806.5-12l-0.3,0.7
				c-252.2-119.4-561-114.8-805.8,12c-205.9,106.5-358.5,287.1-506.1,461.7c-66.6,78.8-135.5,160.3-208.8,234.7
				c-91.4,92.9-175.7,160.7-265.1,213.5c-84.4,49.9-180.9,89.4-286.7,117.6c-93.9,25-197.4,41.7-307.5,49.4
				C1515.6,2011.4,1489.8,2012.3,1463.8,2012.3z"/>
		</g>
		<g>
			<path class="st0" d="M1474.9,1994.6c-90.5,0-185.4-11.3-287.7-34.3c-6.8-1.5-13.6-3-20.4-4.6c-109.9-24.5-213.7-47.6-310.3-108.2
				c-86.2-53.8-162.8-121.1-221.6-194.6c-73.6-92.1-133.2-196.3-190.8-297.1c-58.3-101.9-118.5-207.3-193.3-300.5
				C17.5,764.9-337.6,573.6-699.1,543.8l0.1-0.7c175.9,14.5,356.2,69,521.2,157.5c82.2,44.1,160.3,96.4,232,155.3
				c73,60.1,139.4,127,197.1,198.9c74.9,93.2,135.1,198.6,193.4,300.6c57.6,100.8,117.2,205,190.8,297
				c58.7,73.4,135.2,140.7,221.4,194.5c96.5,60.5,200.3,83.6,310.1,108.1c6.8,1.5,13.6,3,20.4,4.6c133.6,30,254.5,40.1,369.5,31.1
				c230.6-18.2,427.5-74,585.2-166.1c88.1-51.4,171.6-117.3,262.8-207.4c71.9-70.9,139.6-148.3,205.1-223
				c74.4-84.9,151.4-172.8,233.5-250c92-86.5,181.5-150.8,273.6-196.6c118.7-59.1,254.9-90.8,394-91.7
				c139.7-0.9,278.2,29.4,400.5,87.7l-0.3,0.7c-247.7-118-551.8-116.4-793.8,4c-205,101.9-358.5,277.1-506.9,446.4
				c-65.5,74.8-133.3,152.1-205.2,223.1c-91.2,90.1-174.8,156.1-262.9,207.5c-83.5,48.7-178.6,87.7-282.8,115.7
				c-92.5,25-194.4,41.9-302.7,50.5C1530,1993.5,1502.7,1994.6,1474.9,1994.6z"/>
		</g>
		<g>
			<path class="st0" d="M1486.5,1976.9c-83.2,0-173.5-9.8-277.7-29.8c-16-3.1-32.3-6.1-48-9c-106.1-19.5-206.4-38-301.3-92.7
				c-92.7-53.2-174.6-121.3-236.7-197c-74.5-90.6-134.4-194.1-192.4-294.2c-56.6-97.8-115.2-198.9-187.6-288.5
				C14,782.6-332.1,592.5-683,557.3l0.1-0.7C-512.2,573.7-337,629.2-176.4,717C-96.2,760.8-20,812.4,50.1,870.3
				c71.5,59.1,136.5,124.7,193.3,195c72.4,89.6,131,190.8,187.6,288.6c57.9,100,117.8,203.5,192.3,294.1
				c62.1,75.6,143.9,143.6,236.5,196.8c94.8,54.7,195,73.1,301.1,92.6c15.7,2.9,31.9,5.9,48,9c141.2,27.1,256.8,35.4,363.7,26.1
				c226.7-19.8,420.6-75.4,576.6-165.2c86.8-50.1,169.7-114.1,260.7-201.5c70.3-67.4,136.8-140.5,201.1-211.3
				c74.9-82.4,152.4-167.6,234.8-242.3c92.2-83.6,181.7-145.5,273.5-189.2c116.5-55.6,249.5-84.9,385-84.9c1.1,0,2.2,0,3.4,0
				c137.5,0.5,273.7,31.2,394,88.9l-0.3,0.7c-243.1-116.6-542.6-118.1-781.7-4c-204.3,97.3-351.8,259.6-508,431.3
				c-64.3,70.8-130.9,143.9-201.2,211.3c-91.1,87.4-173.9,151.5-260.8,201.6c-82.5,47.6-176.3,85.9-278.9,113.9
				c-91.2,24.9-191.4,42.2-298,51.5C1544.7,1975.6,1516,1976.9,1486.5,1976.9z"/>
		</g>
		<g>
			<path class="st0" d="M1496.9,1959.2c-94.4,0-186-12.3-266.5-25.4c-22.8-3.7-45.9-7-68.2-10.3c-105.1-15.2-204.4-29.6-299.7-80.3
				c-99-52.5-186.1-121.4-251.9-199.3c-75.2-89-135.3-191.4-193.5-290.5c-55.2-94-112.2-191.1-182.3-277.3
				C10.5,800.3-326.6,611.4-666.9,570.8l0.1-0.7c165.6,19.7,335.7,76.2,491.8,163.2c78.1,43.5,152.4,94.5,220.9,151.4
				c69.9,58.1,133.6,122.3,189.5,191c70.1,86.2,127.1,183.4,182.3,277.4c58.1,99,118.2,201.4,193.4,290.4
				c65.7,77.8,152.8,146.7,251.7,199.1c95.2,50.7,194.4,65,299.4,80.2c22.3,3.2,45.4,6.6,68.2,10.3
				c106.4,17.2,232.1,33.2,357.9,21.2c222.7-21.4,413.8-76.7,567.9-164.4c85.5-48.7,167.7-110.8,258.5-195.5
				c68.6-63.8,133.7-132.7,196.7-199.4c75.5-79.9,153.6-162.5,236.2-234.6c92.6-80.7,182-140.2,273.6-181.9
				c116.1-53,248.5-80,382.7-78.1c135.2,1.9,269.2,33.1,387.6,90.2l-0.3,0.7c-238.5-115.2-533.5-119.8-769.7-12
				c-203.8,92.7-352.3,249.9-509.6,416.4c-63,66.7-128.1,135.6-196.7,199.4c-90.9,84.7-173.1,146.9-258.7,195.6
				c-81.5,46.4-174.1,84.1-275,112c-89.8,24.8-188.4,42.5-293.2,52.5C1557.8,1957.9,1527.2,1959.2,1496.9,1959.2z"/>
		</g>
		<g>
			<path class="st0" d="M1505.9,1941.7c-86.4,0-172.1-10.2-254-21.1c-28.1-3.7-56.6-6.8-84.1-9.7c-105.6-11.3-205.4-22-302.3-69.8
				c-105.2-51.6-197.5-121.3-267.1-201.6c-75.7-87.3-135.9-188.5-194.2-286.3c-53.8-90.3-109.4-183.7-177.3-266.6
				C7,818.1-321.1,630.4-650.9,584.4l0.1-0.7c160.4,22.4,325.4,79.8,477.2,166.1c76,43.2,148.5,93.5,215.4,149.4
				c68.3,57.1,130.7,120,185.6,187c67.9,83,123.6,176.4,177.4,266.7c58.3,97.8,118.5,198.9,194.1,286.2
				c69.5,80.2,161.8,149.9,266.9,201.4c96.8,47.7,196.5,58.4,302.1,69.7c27.5,3,56,6,84.2,9.8c112.9,15,233,28.7,352.1,16.2
				c218.8-23,407-78,559.3-163.5c84.2-47.3,165.7-107.6,256.4-189.6c66.7-60.2,130.2-124.8,191.7-187.3
				c76.1-77.4,154.9-157.5,238-227.1c93-77.9,182.6-135,273.9-174.6c114.8-49.9,245.2-74.6,377.1-71.3
				c133,3.3,264.8,34.9,381.1,91.4l-0.3,0.7c-234-113.8-524.3-121.5-757.6-20.1c-203.4,88.2-353.1,240.4-511.7,401.6
				c-61.5,62.5-125.1,127.2-191.7,187.3c-90.8,82-172.3,142.3-256.6,189.7c-80.6,45.3-171.8,82.3-271.2,110.1
				c-88.4,24.7-185.4,42.7-288.4,53.5C1571.5,1940.2,1538.6,1941.7,1505.9,1941.7z"/>
		</g>
		<g>
			<path class="st0" d="M1513.2,1924.3c-79.6,0-158.5-8.4-235.6-16.5l-4.1-0.4c-32.5-3.4-65.4-5.8-97.2-8.1
				c-107.2-7.7-208.5-14.9-307.8-60.4c-111.2-50.6-208.8-121.2-282.3-203.9c-75.9-85.5-136.3-185.2-194.6-281.6
				c-52.5-86.8-106.8-176.5-172.7-256.4C3.6,835.9-315.5,649.3-634.8,597.9l0.1-0.7c319.5,51.5,638.8,238.1,854.1,499.4
				c65.9,79.9,120.2,169.7,172.7,256.5c58.3,96.4,118.7,196.1,194.6,281.5c73.4,82.7,171,153.1,282,203.7
				c99.2,45.4,200.4,52.6,307.6,60.3c31.8,2.3,64.7,4.6,97.2,8.1l4.1,0.4c111.4,11.8,226.5,24,342.2,10.8
				c214.9-24.6,400.1-79.3,550.6-162.7c82.9-45.9,163.7-104.3,254.3-183.6c64.6-56.4,126.4-116.7,186.2-175.1
				c76.9-75,156.4-152.6,240-219.7c93.5-75.1,183.3-129.9,274.6-167.4c113.5-46.8,242-69.2,371.5-64.6
				c130.7,4.6,260.3,36.7,374.7,92.7l-0.3,0.7c-233-114.1-511.7-124.6-745.6-28.1c-203.2,83.6-354.3,230.9-514.3,387
				c-59.8,58.3-121.6,118.6-186.2,175.1c-90.7,79.4-171.5,137.7-254.4,183.7c-79.6,44.1-169.6,80.5-267.3,108.2
				c-87,24.6-182.4,43-283.6,54.6C1584.3,1922.7,1548.7,1924.3,1513.2,1924.3z"/>
		</g>
		<g>
			<path class="st0" d="M1519.1,1907.1c-65.6,0-130.6-5.3-194.3-10.5c-10-0.8-19.9-1.6-29.8-2.4c-36.2-2.9-72.8-4.3-108.3-5.6
				c-109.6-4.2-213-8.2-315.4-51.7c-117-49.6-219.9-120.9-297.5-206.2c-76-83.6-136.4-181.8-194.9-276.6
				c-51.3-83.4-104.4-169.6-168.2-246.5C0.2,853.7-309.9,668.3-618.7,611.4l0.1-0.7c309,56.9,619.3,242.4,830.1,496.2
				c63.9,76.9,117,163.2,168.3,246.6c58.4,94.9,118.8,192.9,194.8,276.5c77.5,85.2,180.3,156.5,297.2,206.1
				c102.2,43.5,205.6,47.5,315.1,51.7c35.4,1.4,72.1,2.8,108.3,5.6c9.9,0.8,19.9,1.6,29.8,2.4c101.2,8.3,205.9,16.8,310.7,3.8
				c210.9-26.1,393.3-80.6,542-161.9c81.5-44.5,161.6-101,252.2-177.7c62.2-52.6,122.1-108.5,180-162.6
				c81.3-76,158.2-147.8,242.3-212.5c95.4-73.4,182.9-124.3,275.6-160.3c112.2-43.7,238.8-63.7,365.9-57.8
				c128.5,6,255.8,38.5,368.2,93.9l-0.3,0.7c-228.4-112.6-502.6-126.1-733.5-36.1c-203.3,79-356,221.6-517.6,372.6
				c-57.9,54.1-117.8,110-180,162.6c-90.6,76.7-170.8,133.2-252.3,177.8c-78.7,43-167.3,78.8-263.4,106.3
				c-85.6,24.6-179.5,43.3-278.9,55.6C1596.8,1905.2,1557.9,1907.1,1519.1,1907.1z"/>
		</g>
		<g>
			<path class="st0" d="M1522.6,1890c-53.4,0-106.3-3.2-158.3-6.3c-15.7-0.9-31.9-1.9-47.8-2.8c-39.4-2.1-79.2-2.4-117.7-2.7
				c-53.9-0.4-109.7-0.8-163.8-6.3c-60.6-6.2-113.2-18.4-160.7-37.3c-122.8-48.5-230.9-120.6-312.6-208.6
				c-76-81.7-136.5-178.2-194.9-271.4c-50.2-80-102.1-162.8-164-236.8C-3.1,871.6-304.2,687.4-602.7,625l0.2-0.7
				c144.9,30.3,294.7,90.7,433.1,174.7c69.9,42.4,136.7,90.6,198.8,143.4c63.5,54.1,122.1,113,174.1,175.1
				c61.9,74.1,113.8,156.8,164,236.9c58.4,93.2,118.9,189.6,194.8,271.3C644,1713.4,752,1785.5,874.7,1834
				c105.7,42,211.8,42.7,324.2,43.6c38.5,0.3,78.3,0.6,117.7,2.7c15.8,0.9,32.1,1.8,47.8,2.8c93.6,5.6,190.4,11.4,286.9-1.5
				c206.9-27.7,386.4-81.9,533.4-161c80.1-43.1,159.5-97.7,250.1-171.7c59.7-48.7,117.3-100.1,173-149.9
				c82.4-73.6,160.2-143.1,245.1-205.4c96.1-70.6,184.1-119.3,276.9-153.2c110.9-40.7,235.5-58.3,360.3-51
				c126.2,7.4,251.3,40.3,361.8,95.2l-0.3,0.7C3627.7,974,3358,957.4,3130,1041c-203.7,74.3-358.2,212.3-521.8,358.4
				c-55.7,49.8-113.4,101.2-173,149.9c-90.6,74.1-170.1,128.7-250.2,171.8c-77.7,41.8-165,77-259.5,104.4
				c-84.3,24.5-176.5,43.6-274.1,56.6C1608.4,1888,1565.4,1890,1522.6,1890z"/>
		</g>
		<g>
			<path class="st0" d="M1522.3,1873.2c-41.6,0-82.9-1.6-123.5-3.3c-19.9-0.8-40.6-1.6-60.6-2.2c-42.1-1.2-84.6-0.3-125.8,0.6
				c-55.5,1.2-113,2.5-168.8-1.7c-62.6-4.7-116.9-15.8-166.2-34.1c-61.5-22.7-120.3-51.7-174.6-86.1
				c-57.6-36.5-109.2-78.5-153.2-124.8c-75.9-79.8-136.4-174.5-194.9-266c-49.1-76.8-99.8-156.2-159.8-227.4
				C-6.4,889.5-298.5,706.5-586.6,638.5l0.2-0.7c139.8,33,284.5,94.4,418.4,177.5c67.8,42.1,132.8,89.7,193.2,141.4
				c62,53.1,119.3,110.6,170.3,171.1c60,71.2,110.8,150.6,159.9,227.4c58.5,91.5,118.9,186.1,194.8,265.9
				c86,90.5,199.3,163.4,327.5,210.7c109.6,40.7,218.9,38.3,334.7,35.8c41.2-0.9,83.7-1.8,125.8-0.6c20,0.6,40.7,1.4,60.6,2.2
				c87.6,3.5,178.1,7.1,268.3-5.9c202.9-29.3,379.5-83.2,524.7-160.2c78.6-41.7,157.4-94.3,247.9-165.8
				c56.8-44.7,111.8-91.6,165.1-137c83.6-71.2,162.5-138.5,248.3-198.5c97.1-67.9,185.7-114.4,278.8-146.1
				c225.2-77.2,490.6-57.7,710,52.2l-0.3,0.7c-219.2-109.8-484.4-129.3-709.4-52.2c-204.3,69.7-361,203.2-526.8,344.5
				c-53.3,45.4-108.3,92.3-165.1,137c-90.6,71.5-169.4,124.2-248,165.8c-76.8,40.7-162.8,75.2-255.6,102.6
				c-82.9,24.4-173.5,43.8-269.3,57.7C1618.8,1871,1570.3,1873.2,1522.3,1873.2z"/>
		</g>
		<g>
			<path class="st0" d="M1103.1,1862.6c-16.9,0-33.7-0.3-50.5-1.2c-64.7-3.2-121.1-13.3-172.2-31.1c-64.2-22.2-125.7-51.1-182.6-86
				c-60.2-36.9-114.2-79.7-160.3-127.2c-75.7-77.9-136.2-170.7-194.7-260.4c-48-73.6-97.6-149.6-155.7-218
				C-9.6,907.5-292.8,725.6-570.6,652l0.2-0.7c134.7,35.7,274.3,98,403.7,180.4c65.8,41.8,128.9,88.7,187.7,139.4
				c60.4,52.1,116.4,108.3,166.5,167.2c58.2,68.5,107.8,144.5,155.8,218.1c58.5,89.7,119,182.4,194.6,260.3
				c90.5,93.2,209,166.8,342.7,213c113.9,39.5,232.1,33.8,346.4,28.2c43.4-2.1,88.3-4.3,132.7-4.1c23.1,0.1,47,0.6,70.1,1.1
				c82.6,1.7,168.1,3.4,253-9.7c198.9-30.9,372.6-84.5,516.1-159.3c77-40.2,155.1-91,245.8-159.8c53.5-40.5,105.6-82.8,156.1-123.7
				c168.5-136.8,327.7-265.9,533.2-331c108.3-34.5,229-47.4,349-37.4c60.2,5,120.2,15.7,178.3,31.9c59.3,16.5,116.7,38.6,170.6,65.8
				l-0.3,0.7c-214.7-108.4-475.4-130.9-697.4-60.2c-205.4,65-364.5,194.2-533,330.9c-50.4,40.9-102.6,83.2-156.1,123.7
				c-90.7,68.9-168.9,119.7-245.9,159.9c-75.8,39.6-160.5,73.4-251.7,100.7c-81.5,24.4-170.6,44.1-264.6,58.7
				c-85,13.2-170.4,11.4-253.1,9.7c-23.1-0.5-47-1-70.1-1.1c-44.4-0.3-89.3,1.9-132.7,4.1
				C1186.3,1860.6,1144.5,1862.6,1103.1,1862.6z"/>
		</g>
		<g>
			<path class="st0" d="M1086,1856.7c-8,0-15.9-0.1-23.8-0.3c-67.1-1.7-125.6-10.9-178.8-28.2c-66.8-21.6-131-50.5-190.6-85.9
				c-62.8-37.2-119.2-80.9-167.5-129.6c-75.4-76-136-166.9-194.6-254.8c-46.9-70.4-95.4-143.1-151.7-208.8
				C-12.7,925.6-286.9,744.8-554.5,665.5l0.2-0.7c129.6,38.4,264.1,101.8,389.1,183.2c63.7,41.5,125,87.8,182.1,137.4
				c58.8,51.1,113.6,106,162.6,163.2c56.3,65.7,104.8,138.5,151.7,208.9c58.5,87.8,119.1,178.7,194.5,254.7
				c95.2,95.9,218.9,170.4,357.9,215.3c118.5,38.6,240.8,29.5,359.2,20.7c45.3-3.4,92.1-6.8,138.5-7.7c25.4-0.5,51.7-0.4,77.1-0.4
				c78.5,0.1,159.7,0.1,240.2-13.2c194.9-32.4,365.6-85.7,507.4-158.5c76.4-39.2,151.6-86.7,243.7-153.9
				c49.8-36.2,98.5-73.8,145.7-110.2c171.6-132.3,333.7-257.3,540.7-317.7c107-31.4,225.8-42,343.4-30.7c59.2,5.7,118,16.9,175,33.2
				c58.2,16.7,114.5,38.8,167.4,65.7l-0.3,0.7c-210.2-106.9-466.4-132.5-685.3-68.2c-206.9,60.3-368.9,185.3-540.5,317.6
				c-47.1,36.4-95.9,73.9-145.7,110.2c-92.2,67.2-167.4,114.7-243.8,153.9c-74.9,38.4-158.3,71.7-247.9,98.8
				c-80.2,24.3-167.6,44.4-259.8,59.7c-80.5,13.4-161.7,13.3-240.3,13.2c-25.4,0-51.7,0-77.1,0.4c-46.4,0.8-93.2,4.3-138.5,7.7
				C1191.3,1852.8,1138.3,1856.7,1086,1856.7z"/>
		</g>
		<g>
			<path class="st0" d="M1074.5,1851.5c-0.7,0-1.4,0-2.1,0c-69.7-0.2-130.5-8.5-186-25.4c-69.4-21.1-136.2-50-198.6-85.9
				c-65.3-37.6-124.1-82-174.8-132c-75.1-74.2-135.8-163.1-194.4-249.1c-45.8-67.2-93.2-136.6-147.6-199.6
				c-189.5-219-448.1-394.1-709.4-480.5l0.2-0.7c124.5,41.2,254,105.5,374.4,186.1c61.7,41.3,121.1,86.8,176.6,135.4
				c57.3,50.1,110.7,103.7,158.8,159.2c54.5,63,101.8,132.4,147.6,199.6c58.6,86,119.2,174.9,194.3,249
				c98.5,97.3,231,174.6,373,217.7c123.5,37.7,250.4,25.3,373.1,13.3c46.8-4.6,95.2-9.3,143.2-11.3c27.1-1.1,55.2-1.6,82.3-2.1
				c74.9-1.4,152.4-2.8,229.1-16.4c190.8-33.9,358.6-87,498.8-157.6c74.6-37.6,149.1-83.2,241.6-147.9
				c45.6-31.8,90.4-64.5,133.7-96.2c175.2-128.2,340.8-249.2,549.8-304.8c105.7-28.3,222.5-36.5,337.8-23.9
				c58.1,6.4,115.8,18,171.7,34.5c57,16.9,112.3,39,164.3,65.6l-0.3,0.7c-205.7-105.5-457.4-134-673.3-76.3
				c-208.9,55.5-374.4,176.6-549.6,304.7c-43.3,31.7-88.1,64.5-133.7,96.2c-92.5,64.7-167.1,110.3-241.7,148
				c-74,37.3-156.1,69.9-244,96.9c-78.9,24.2-164.7,44.7-255,60.8c-76.7,13.6-154.3,15.1-229.2,16.5c-27.2,0.5-55.3,1-82.3,2.1
				c-47.9,2-96.3,6.7-143.1,11.3C1198.9,1845.3,1136,1851.5,1074.5,1851.5z"/>
		</g>
		<g>
			<path class="st0" d="M1066.5,1846.7c-65.6,0-123.7-7.5-177.2-22.8c-72-20.5-141.4-49.4-206.5-85.8c-67.8-37.9-129-83.2-182-134.4
				c-74.8-72.3-135.6-159.3-194.3-243.4c-44.7-64-90.9-130.2-143.5-190.4C-21.3,959-271.1,785-522.4,692.6l0.3-0.7
				c119.5,44,243.9,109.3,359.7,188.9c122.7,84.4,232.4,181.5,326,288.6c52.6,60.2,98.8,126.4,143.5,190.4
				c58.7,84.1,119.5,171.1,194.2,243.3c103.5,100,241.3,178.1,388.2,220c128.9,36.9,260.7,21.1,388.1,5.8
				c48-5.8,97.6-11.7,146.7-14.9c28.3-1.8,57.7-3,86.2-4c71.8-2.8,146.1-5.6,219.4-19.5c186.7-35.4,351.6-88.2,490.1-156.8
				c93-46.1,176.8-100.1,239.4-142c40.7-27.1,80.8-54.9,119.7-81.8c179.5-124.3,349.1-241.6,561-292.3
				c104.4-25.2,219.3-31.1,332.2-17.1c57,7.1,113.6,19.1,168.4,35.9c55.9,17.1,110.1,39.2,161.2,65.6l-0.3,0.7
				c-204.2-105.7-445.2-136.4-661.2-84.3c-211.7,50.7-381.2,168-560.7,292.2c-38.9,26.9-79,54.7-119.7,81.8
				c-62.6,41.9-146.5,95.9-239.5,142c-73,36.1-153.8,68.1-240.1,95c-77.6,24.2-161.8,45-250.2,61.8
				c-73.4,13.9-147.7,16.8-219.5,19.5c-28.5,1.1-57.9,2.2-86.2,4c-49.1,3.2-98.7,9.1-146.6,14.9c-63.9,7.7-130,15.6-194.7,16.8
				C1077.5,1846.7,1072,1846.7,1066.5,1846.7z"/>
		</g>
		<g>
			<path class="st0" d="M1060.3,1842.3c-61.5,0-116.7-6.8-168-20.6c-74.5-20-146.6-48.8-214.4-85.8
				c-70.2-38.3-133.9-84.3-189.3-136.7c-74.5-70.5-135.4-155.6-194.4-237.8c-43.5-60.8-88.6-123.6-139.2-181.1
				c-178.9-202.7-420-375.6-661.4-474.3l0.3-0.7c114.6,46.8,233.9,113.1,345,191.8c118.7,84,225.2,179.1,316.6,282.7
				c50.7,57.5,95.7,120.3,139.3,181.1c58.9,82.2,119.8,167.2,194.3,237.7c108.6,102.7,251.8,181.7,403.4,222.3
				c134.7,36.3,271.8,16.9,404.4-1.8c48.7-6.9,99.1-14,148.9-18.3c29.2-2.5,58.3-4.3,89.1-6.1c69-4.1,140.4-8.2,210.8-22.5
				c182.5-36.9,344.5-89.4,481.5-155.9c89.6-43.5,170.3-93.2,237.3-136c34.9-22.2,69.6-44.9,103.2-66.8
				c184.7-120.7,359.2-234.7,574.6-280.4c103.1-22.1,216-25.6,326.6-10.3c55.9,7.7,111.4,20.3,165.1,37.2
				c54.8,17.3,108,39.3,158,65.5l-0.3,0.7c-199.7-104.3-436.3-137.9-649.2-92.3c-215.2,45.7-389.7,159.7-574.3,280.3
				c-33.6,21.9-68.3,44.6-103.2,66.8c-67.1,42.8-147.7,92.5-237.4,136.1c-137.1,66.6-299.2,119-481.7,156
				c-70.4,14.2-141.8,18.4-210.9,22.5c-30.8,1.8-59.9,3.5-89,6.1c-49.9,4.4-100.2,11.5-148.9,18.3c-66.5,9.4-135.2,19.1-202.6,21.7
				C1082.9,1842.1,1071.5,1842.3,1060.3,1842.3z"/>
		</g>
		<g>
			<path class="st0" d="M1055.4,1838.3c-58.1,0-110.8-6.2-160.1-18.6c-76.9-19.4-151.7-48.3-222.3-85.8
				c-72.6-38.6-138.7-85.4-196.6-139c-74.2-68.8-135.4-151.9-194.5-232.3c-42.3-57.5-86.1-117-134.8-171.7
				c-173.2-194.3-405.5-366-637.3-471.1l0.3-0.7c231.9,105.2,464.3,277,637.6,471.3c48.7,54.7,92.5,114.2,134.9,171.7
				c59.1,80.4,120.3,163.5,194.4,232.2c113.9,105.5,262.5,185.3,418.5,224.6c141,35.7,283.9,12.7,422.1-9.6
				c49-7.9,99.7-16.1,149.8-21.6c29.8-3.3,59.6-5.7,91.1-8.2c66.5-5.3,135.2-10.8,202.9-25.3c178.2-38.4,337.3-90.6,472.9-155.1
				c86.3-41.1,167.3-88.8,235.2-130.1c28.2-17.1,56.3-34.4,83.6-51.2c191-117.6,371.3-228.6,591.3-269.2
				c209.8-39.1,442.2-2.5,637.6,100.4l-0.3,0.7c-195.2-102.9-427.4-139.4-637.1-100.3c-219.9,40.6-400.2,151.6-591.1,269.1
				c-27.2,16.8-55.4,34.1-83.6,51.2c-67.9,41.3-148.9,89-235.3,130.1c-135.6,64.5-294.8,116.7-473,155.1
				c-67.7,14.6-136.5,20.1-203,25.4c-31.5,2.5-61.3,4.9-91.1,8.2c-50.1,5.5-100.8,13.7-149.8,21.6c-69.3,11.2-140.9,22.7-211.2,26.7
				C1089,1837.7,1072,1838.2,1055.4,1838.3z"/>
		</g>
		<g>
			<path class="st0" d="M1051.7,1834.4c-55.2,0-105.8-5.6-153.4-17c-79.3-18.8-156.8-47.7-230.1-85.9
				c-74.9-38.9-143.5-86.5-203.9-141.3c-74-67.1-135.5-148.4-195-227c-41.1-54.2-83.5-110.3-130.2-162.1
				c-167.2-185.4-390.7-356-613.3-468l0.3-0.7c105,52.8,214.1,121.1,315.6,197.5c110.8,83.3,211,174.4,297.9,270.7
				c46.7,51.8,89.1,107.9,130.2,162.2c59.5,78.6,120.9,159.8,194.9,226.9c119.4,108.3,273.4,188.9,433.7,227
				c147.7,35.2,297,8.3,441.3-17.7c48.8-8.8,99.3-17.9,149.2-24.5c30.2-4,60.4-7.1,92.5-10.3c64.2-6.5,130.5-13.2,195.7-28.1
				c173.8-39.8,330-91.7,464.2-154.2c77.4-36.1,149.2-75.7,233.1-124.1c20.1-11.6,40.4-23.3,59.9-34.6
				c198.6-115,386.2-223.7,612.1-258.9c206.6-32.6,434.6,6.9,625.5,108.4l-0.4,0.7c-190.8-101.5-418.6-141-625.1-108.4
				c-225.8,35.2-413.3,143.8-611.9,258.9c-19.6,11.3-39.8,23-59.9,34.6c-83.9,48.4-155.7,88-233.1,124.1
				c-134.3,62.6-290.5,114.5-464.4,154.3c-65.3,14.9-131.6,21.7-195.8,28.2c-32,3.2-62.3,6.3-92.4,10.3
				c-49.9,6.6-100.4,15.7-149.2,24.5c-72.3,13-147.1,26.5-220.6,32C1096,1833.5,1073.5,1834.4,1051.7,1834.4z"/>
		</g>
		<g>
			<path class="st0" d="M1048.8,1830.8c-52.7,0-101.4-5.1-147.5-15.5c-81.7-18.3-161.8-47.2-238-85.9
				c-77.1-39.2-148.2-87.5-211.3-143.5c-73.9-65.6-135.8-145.1-195.7-221.9c-39.6-50.9-80.6-103.4-125.2-152.3
				c-160.4-175.8-375.2-345.3-589.3-464.9l0.4-0.7c100.5,56.1,204.5,125.4,300.9,200.3c107,83.1,204,172.2,288.5,264.8
				c44.5,48.9,85.6,101.5,125.2,152.3c59.9,76.8,121.8,156.3,195.6,221.8c125.2,111.1,284.6,192.6,448.9,229.3
				c155.1,34.8,311.3,3.8,462.3-26.2c48-9.5,97.7-19.4,146.8-27.1c30.4-4.8,61-8.5,93.3-12.5c62-7.7,126.1-15.6,189.1-30.9
				c169.3-41.1,322.6-92.7,455.6-153.4c80.6-36.7,155.2-76.9,231-118.2c10.4-5.6,20.7-11.2,31-16.8
				c208.1-113.3,404.6-220.3,638.2-249.8c100.5-12.9,204.7-9.5,309.7,10c107.2,20,209.4,55.8,303.7,106.4l-0.4,0.7
				c-186.4-100.1-409.8-142.5-613-116.4c-233.5,29.6-429.9,136.5-637.9,249.8c-10.3,5.6-20.6,11.2-31,16.8
				c-75.7,41.3-150.4,81.4-231,118.2c-133.1,60.6-286.4,112.3-455.7,153.4c-63,15.3-127.1,23.2-189.2,30.9
				c-32.3,4-62.9,7.8-93.3,12.5c-49.1,7.7-98.8,17.5-146.8,27.1c-75.7,15-153.9,30.6-230.9,37.7
				C1103.8,1829.4,1075.7,1830.8,1048.8,1830.8z"/>
		</g>
		<g>
			<path class="st0" d="M1046.6,1827.3c-50.5,0-97.6-4.7-142.3-14.2c-84-17.7-166.7-46.6-245.8-86.1
				c-79.3-39.5-152.9-88.6-218.6-145.7c-73.9-64.2-136.5-142-197-217.2c-38.1-47.4-77.5-96.3-119.7-142.1
				c-154.9-167.7-355.6-331.7-565.2-461.8l0.4-0.6c209.7,130.2,410.5,294.3,565.4,462c42.3,45.8,81.7,94.8,119.8,142.1
				c60.5,75.2,123.1,153,196.9,217.1c131.2,114,296,196.2,464.1,231.6c163.1,34.5,326.9-1,485.2-35.3
				c46.6-10.1,94.8-20.5,142.4-29.1c30.5-5.5,61.2-10,93.7-14.8c60-8.8,122-18,182.9-33.6c164.5-42.4,314.9-93.7,446.9-152.5
				c78.4-34.9,153.3-73.4,225.7-110.6l3.1-1.6c217.4-111.2,422.7-216.3,666.3-239.8c99.1-9.7,201.4-4.1,304.1,16.8
				c104.9,21.3,204.9,57.6,297.3,107.7l-0.4,0.7c-182-98.7-401.1-144.1-601-124.4c-243.4,23.5-448.7,128.5-666,239.7l-3.1,1.6
				c-72.4,37.2-147.3,75.7-225.8,110.6c-132.1,58.8-282.5,110.1-447.1,152.6c-60.9,15.7-122.9,24.8-183,33.7
				c-32.5,4.8-63.1,9.3-93.7,14.8c-47.6,8.5-95.8,19-142.4,29.1c-79.3,17.2-161.3,34.9-242.1,43.7
				C1112.4,1825.4,1078.8,1827.3,1046.6,1827.3z"/>
		</g>
		<g>
			<path class="st0" d="M1045,1824c-48.6,0-94.2-4.3-137.7-13c-86.2-17.1-171.5-46.1-253.5-86.2c-81.4-39.8-157.4-89.6-226.1-147.9
				c-74.1-62.9-137.5-139.3-198.9-213.1c-36.3-43.7-73.8-88.8-113.6-131.4C-70.5,1034-281.6,873.5-426,773.7l0.4-0.6
				C-281.2,872.9-70,1033.4,115.7,1232c39.8,42.5,77.3,87.7,113.6,131.4c61.3,73.8,124.7,150.1,198.8,213
				c137.6,116.8,307.7,199.9,479.2,233.9c172,34.3,344.1-6.1,510.6-45.1c44.4-10.4,90.4-21.2,135.7-30.4c30.5-6.2,61.2-11.5,93.7-17
				c58.1-10,118.2-20.3,177.1-36.4c159.4-43.5,306.9-94.6,438.3-151.7c67.4-29.3,132.6-60.8,195.6-91.2c10.4-5,20.8-10,31.1-15
				c102.9-49.4,212.8-100.9,324.8-140.2c119.2-41.8,230-65.6,338.6-72.8c97.7-6.6,198.1,1.4,298.5,23.6
				c102.5,22.7,200.4,59.4,290.8,108.9l-0.4,0.7c-180.4-98.8-389.5-145.9-588.9-132.5c-235.1,15.4-439.4,105.5-663.1,212.9
				c-10.3,5-20.7,10-31.1,15c-63,30.5-128.2,62-195.6,91.2c-131.5,57.1-279,108.1-438.4,151.7c-58.9,16.1-119,26.4-177.2,36.4
				c-32.5,5.6-63.1,10.8-93.6,17c-45.3,9.2-91.2,20-135.7,30.4c-83.3,19.5-169.5,39.7-254.5,50.3C1122,1821.4,1082.6,1824,1045,1824
				z"/>
		</g>
		<g>
			<path class="st0" d="M1043.9,1820.8c-46.9,0-91.2-4-133.7-11.9c-88.4-16.5-176.3-45.6-261.2-86.5
				c-83.3-40.1-161.9-90.5-233.5-150c-74.7-62-139.3-137.1-201.7-209.7c-34.2-39.8-69.6-80.9-106.5-119.8
				C-28.9,1099.5-198,950.4-410,787.2l0.5-0.6c212,163.2,381.2,312.3,517.3,455.7c37,39,72.3,80.1,106.5,119.9
				c62.5,72.6,127,147.7,201.7,209.6c144.2,119.7,319.8,203.6,494.4,236.3c181.8,34.1,363.3-11.6,538.8-55.8
				c41.3-10.4,84-21.2,126.1-30.7c30.4-6.9,60.9-12.9,93.2-19.3c56.4-11.1,114.6-22.6,171.7-39.1c153.7-44.5,298.3-95.2,429.7-150.8
				c55.2-23.4,109.3-48,161.6-71.8c20.7-9.4,42.1-19.1,63-28.5c95.9-43,209.5-91.6,324.3-126.9c117.9-36.2,227.9-55.6,336.3-59.2
				c196.1-6.9,401.1,43,577.3,140.6l-0.4,0.7c-176.1-97.5-381-147.4-576.9-140.5c-244.2,8.2-460.1,96.4-660.3,186
				c-20.9,9.4-42.3,19.1-63,28.5c-52.3,23.8-106.4,48.4-161.7,71.8c-131.4,55.6-276,106.4-429.8,150.8
				c-57.1,16.5-115.4,28-171.8,39.1c-32.3,6.4-62.9,12.4-93.2,19.3c-42.1,9.6-84.8,20.3-126.1,30.7c-87.8,22.1-178.6,45-268.3,57.6
				C1132.7,1817.4,1087.2,1820.8,1043.9,1820.8z"/>
		</g>
		<g>
			<path class="st0" d="M1043.2,1817.7c-45.4,0-88.6-3.7-130-11c-90.5-16-181-45.1-268.9-86.7c-85.2-40.3-166.3-91.5-241-152
				c-75.7-61.3-141.9-135.6-206-207.5c-31.6-35.5-64.3-72.1-98-107.2c-158-164.1-337.8-318.8-482.2-443.2l-10.9-9.4l0.5-0.6
				l10.9,9.4c144.4,124.3,324.2,279,482.3,443.2c33.7,35.1,66.4,71.7,98.1,107.2c64,71.8,130.3,146.1,205.9,207.4
				c153.5,124.4,329.7,206.9,509.6,238.6c192.8,34.1,384.7-17.7,570.4-67.8c37.1-10,75.4-20.3,113-29.8
				c30.1-7.6,60.4-14.3,92.4-21.5c54.7-12.2,111.3-24.9,166.7-41.8c146.9-45,288.6-95.4,421-150c41.7-17.2,83-34.9,123-52.1
				c32.7-14,66.5-28.5,99.5-42.3c128.8-53.5,228.6-88.5,323.7-113.5c116.6-30.7,225.8-45.6,333.9-45.7c0.9,0,1.7,0,2.6,0
				c191.7,0,391.4,52.7,562.6,148.6l-0.4,0.7c-171.1-95.8-370.7-148.5-562.2-148.5c-0.9,0-1.7,0-2.6,0
				c-241.4,0.2-458.6,76.6-657.4,159.2c-33,13.8-66.8,28.3-99.5,42.3c-40,17.2-81.3,34.9-123,52.1c-132.5,54.6-274.2,105-421.1,150
				c-55.4,16.9-112,29.6-166.7,41.8c-32,7.2-62.3,13.9-92.4,21.5c-37.7,9.5-76,19.8-113,29.8c-92.8,25-188.7,50.9-283.7,65.8
				C1144.7,1813.4,1092.6,1817.7,1043.2,1817.7z"/>
		</g>
		<g>
			<path class="st0" d="M1042.9,1814.7c-44.1,0-86.1-3.4-126.7-10.1c-92.6-15.4-185.6-44.7-276.6-87.1
				c-86.9-40.5-170.5-92.3-248.5-154c-77.5-61.3-146.1-135.4-212.5-207.1c-28.3-30.6-57.6-62.2-87.4-92.7
				C-10.8,1159.4-116.9,1060.1-219.5,964c-56-52.5-109-102-158.4-149.7l0.5-0.5C-327.9,861.4-275,911-219,963.4
				c102.6,96.1,208.7,195.4,310.8,299.8c29.8,30.5,59.1,62.1,87.4,92.7c66.3,71.7,134.9,145.8,212.4,207
				c161.1,127.3,342.6,210.6,524.7,240.9c205.3,34.2,409.1-24.6,606.2-81.4c31.4-9.1,63.9-18.4,95.8-27.2
				c29.8-8.2,59.6-15.7,91.1-23.7c53.2-13.4,108.3-27.2,162.2-44.6c137.6-44.5,276.4-94.7,412.4-149.1c26.5-10.6,53-21.4,78.6-31.8
				c48.7-19.8,94.7-38.5,141.7-56.6c122.5-46.9,225.2-78.7,323.2-100.2c115.2-25.2,223.7-35.7,331.6-32.2
				c93.4,2.9,188.2,17.7,281.7,44c95.3,26.7,186.7,64.7,271.5,112.7l-0.4,0.7c-167.8-95-364.1-150.6-552.8-156.5
				c-199.3-6.5-395,33-654.5,132.3c-47,18-93,36.8-141.7,56.6c-25.7,10.4-52.2,21.2-78.6,31.8c-136,54.4-274.8,104.6-412.4,149.1
				c-53.9,17.4-109,31.3-162.2,44.7c-31.6,7.9-61.4,15.4-91.1,23.6c-31.9,8.8-64.4,18.2-95.8,27.2c-98.4,28.4-200.1,57.7-301.1,75.1
				C1158.1,1809.2,1098.9,1814.7,1042.9,1814.7z"/>
		</g>
		<g>
			<path class="st0" d="M1042.9,1811.8c-42.9,0-84-3.1-123.7-9.4c-184.1-28.8-370.9-113-540.3-243.4
				c-80.6-62.1-152.8-137.2-222.6-209.8c-23.8-24.7-48.3-50.3-73-75.1c-54-54.3-109.5-108.6-163.1-161.1
				c-102.1-99.9-198.5-194.3-282-285.2l0.6-0.5c83.5,90.9,179.9,185.3,282,285.2c53.6,52.5,109.1,106.8,163.1,161.1
				c24.7,24.8,49.3,50.4,73,75.1c69.8,72.6,141.9,147.7,222.5,209.7c169.3,130.3,356,214.4,539.9,243.2
				c219.6,34.5,437-32.5,647.2-97.3c24.1-7.4,48.9-15.1,73.3-22.4c29.2-8.8,59.7-17.4,89.2-25.6c52-14.6,105.7-29.6,158.3-47.6
				c122.4-41.9,254.4-90.4,403.8-148.3c9.1-3.5,18.3-7.1,27.3-10.6c65.6-25.5,127.6-49.6,190.9-71.8c117.1-41,222.7-69.3,322.7-86.8
				c113.8-19.9,221.5-26,329.3-18.7c91.9,6.1,184.8,23.2,276.1,50.7c92.9,28.1,182.1,66.4,265,113.9l-0.4,0.7
				c-166.2-95.2-353.2-152.1-540.8-164.6c-202.9-13.7-403.8,18.8-651.6,105.4c-63.3,22.2-125.3,46.3-190.9,71.8
				c-9.1,3.5-18.2,7.1-27.3,10.6c-149.3,57.9-281.4,106.4-403.8,148.3c-52.6,18-106.4,33.1-158.4,47.6c-29.5,8.3-60,16.8-89.2,25.6
				c-24.4,7.4-49.3,15-73.3,22.4c-104.8,32.3-213.1,65.7-321,86.1C1173.4,1804.9,1106.2,1811.8,1042.9,1811.8z"/>
		</g>
		<g>
			<path class="st0" d="M1043.4,1809c-40.3,0-80.7-2.7-121.2-8.7c-96.5-14.2-194.6-43.8-291.7-88c-89.7-40.8-178.4-93.8-263.7-157.7
				c-86.2-64.6-164.2-142.7-239.6-218.3c-16.9-17-34.4-34.5-51.8-51.7l-22.1-21.8c-141.2-139.4-287.2-283.5-399-421.5l0.6-0.5
				c111.8,138,257.8,282.1,399,421.4l22.1,21.8c17.4,17.2,34.9,34.7,51.8,51.7c75.4,75.6,153.3,153.7,239.5,218.2
				c178,133.3,369.9,218.2,555.1,245.5c236.3,34.9,469.4-41.9,694.9-116.2c14.8-4.9,29.5-9.7,44.2-14.5c28.2-9.2,57.6-18.4,86-27.2
				c51.1-15.9,103.9-32.3,155.7-51c97.7-35.3,197.4-72.9,293.7-109.3c33.3-12.5,67.7-25.5,101.4-38.2c68.8-25.8,142.1-53,216.1-76.5
				c113.9-36,219.3-60.1,322.1-73.4c112.3-14.6,219.2-16.3,326.9-5.2c90.4,9.2,181.3,28.6,270.4,57.5
				c90.4,29.4,177.4,68.1,258.6,115.2l-0.4,0.6c-162.3-94.1-345.1-153.8-528.7-172.6c-205.9-21.3-412,3.7-648.7,78.6
				c-74,23.5-147.3,50.7-216.1,76.5c-33.7,12.6-68.1,25.6-101.4,38.2c-96.4,36.4-196.1,73.9-293.7,109.3
				c-51.8,18.7-104.6,35.1-155.7,51c-28.4,8.8-57.8,18-86,27.2c-14.7,4.8-29.4,9.7-44.2,14.5
				C1430.5,1745.6,1238.3,1808.9,1043.4,1809z"/>
		</g>
		<g>
			<path class="st0" d="M1044.3,1806.2c-39.6,0-79.3-2.5-119.2-8.1c-98.3-13.7-198.9-43.4-299.2-88.5
				c-90.7-40.8-182-94.4-271.4-159.5c-97.2-70.7-185.8-156.7-271.5-239.9c-5.2-5.1-10.4-10.1-15.7-15.2
				c-134-129.9-286-283.7-397-440.2l0.6-0.4c111,156.4,263,310.2,397,440.1c5.2,5.1,10.4,10.1,15.7,15.2
				c85.7,83.1,174.3,169.1,271.4,239.8c190,138.3,381.9,221.7,570.3,247.9c256.2,35.7,507.9-53.4,751.3-139.6l6.4-2.2
				c26.4-9.3,53.8-18.7,80.2-27.8c51.1-17.5,103.9-35.6,155.6-55.4c35.2-13.4,71-27.2,105.7-40.6c92-35.4,187.2-72.1,280.8-106
				c58.1-21.1,134.9-48.1,214-70.5c226.4-64,437.8-81,646.2-51.7c179.5,25,358.2,87.5,516.9,180.7l-0.4,0.6
				c-158.6-93.2-337.3-155.6-516.7-180.6c-208.3-29.2-419.5-12.3-645.9,51.7c-79,22.4-155.9,49.5-214,70.5
				c-93.6,33.9-188.7,70.5-280.7,106c-34.7,13.4-70.5,27.2-105.7,40.6c-51.8,19.8-104.6,37.9-155.7,55.4
				c-26.5,9.1-53.8,18.5-80.2,27.8l-6.4,2.2C1471.2,1731.3,1259.6,1806.2,1044.3,1806.2z"/>
		</g>
		<g>
			<path class="st0" d="M1044.6,1803.4c-39.9,0-78.6-2.5-116.5-7.4c-100-13.1-203.2-43.1-306.7-89.2
				c-91.3-40.7-185.2-94.9-279.1-161.1c-102.8-72.6-196.8-158.3-283-240.2c-170.6-161.9-289.1-300.8-373-437.1l0.6-0.4
				c83.9,136.2,202.4,275.1,372.9,437c86.2,81.8,180.1,167.6,282.9,240.1C543,1686.4,740,1770.6,928.2,1795.2
				c257.6,33.8,514.2-53.1,776.2-152.9c21.7-8.3,44.1-16.7,65.7-24.8c53.9-20.3,109.6-41.3,164.4-63.3l13.6-5.5
				c118.9-48,241.9-97.6,364.2-140.2c80.3-28,147.6-48.6,211.9-64.6c107.3-26.7,215.3-42.4,321-46.7c107.8-4.4,216.2,3,322.3,21.9
				c175,31.1,349.6,96.4,504.9,188.8l-0.4,0.6c-155.2-92.4-329.7-157.6-504.6-188.7c-210-37.4-426.4-29.1-643,24.9
				c-64.2,16-131.5,36.6-211.8,64.6c-122.2,42.7-245.2,92.3-364.2,140.2l-13.6,5.5c-54.8,22.1-110.5,43.1-164.4,63.3
				c-21.6,8.1-44,16.6-65.7,24.8c-121.6,46.3-251.4,94.2-382.3,125.2C1222.9,1791.7,1131.1,1803.4,1044.6,1803.4z"/>
		</g>
		<g>
			<path class="st0" d="M1045.8,1800.7c-39.1,0-77.3-2.3-114.7-6.9c-189.8-23.4-386.4-106-600.9-252.6
				c-92.1-62.9-183.2-136.6-278.7-225.3c-158.2-146.9-272.3-288.8-349-434l0.7-0.4c76.6,145.1,190.7,287,348.8,433.8
				c95.5,88.7,186.6,162.3,278.7,225.2c214.4,146.5,410.9,229.1,600.6,252.5c279,34.4,556.5-66.6,794.8-164
				c66.9-27.3,145.9-59.8,224.2-93.1c123-52.4,243.8-102.9,369.2-144.9c75.7-25.4,144.3-44.6,209.8-58.6
				c210.7-45.3,426.2-44.6,640.4,2c85.4,18.5,170.7,44.7,253.6,77.9c82.7,33,163.1,73,239.2,118.9l-0.4,0.6
				c-152.1-91.7-322.4-159.7-492.6-196.7c-214.1-46.6-429.5-47.2-640.1-2c-65.4,14.1-134,33.2-209.7,58.6
				c-125.3,42-246.1,92.5-369.1,144.9c-78.3,33.4-157.3,65.8-224.3,93.2c-115.4,47.1-252,99.8-390.6,133.4
				C1232.2,1788.3,1136.5,1800.7,1045.8,1800.7z"/>
		</g>
		<g>
			<path class="st0" d="M1047.1,1798.1c-38.4,0-76-2.2-113.1-6.4c-190.2-22-386-103.1-616.1-255c-299-197.4-495.1-407.2-599.5-641.3
				l0.7-0.3c104.3,234,300.3,443.7,599.2,641c230,151.8,425.7,232.8,615.8,254.8c287.5,33.3,572.5-69.8,813.4-175
				c49.3-21.6,99.4-44.2,147.7-66.2c204.3-92.6,415.6-188.4,638.9-228.7c93.8-16.9,191.3-24.1,289.7-21.2
				c95.2,2.7,192.3,14.8,288.6,35.9c93.9,20.6,187.7,49.8,279,87c89.8,36.6,177.6,80.9,261,131.9l-0.4,0.6
				c-272.2-166.5-579.9-255-873.4-255c-83,0-164.7,7.1-244.3,21.4c-223.3,40.3-434.5,136-638.7,228.6
				c-48.4,21.9-98.4,44.6-147.7,66.2c-155.4,67.9-282.1,112.9-398.7,141.8C1241.8,1784.9,1142.1,1798.1,1047.1,1798.1z"/>
		</g>
	</g>
</g>
</svg>
